<svg xmlns="http://www.w3.org/2000/svg" version="1.1" viewBox="-5.0 -10.0 110.0 135.0">
 <path d="m90.453 13.23v54.008c0.003906 0.16016-0.003906 0.32031-0.03125 0.47656-0.33203 11.918-18.254 15.832-26.738 8.7344-13.969-13.449 6.2773-27.867 20.465-19.613v-26.645l-43.164 9.2695-0.09375 41.051c-0.17188 7.4766-6.6719 12.738-15.672 12.738-8.9844 0-15.418-5.2031-15.672-12.645-0.21875-11.395 15.887-16.109 25.035-10.5v-47.637c0.023438-3.0547 2.1562-5.6836 5.1406-6.3398l42.91-9.2383c1.9102-0.39062 3.8945 0.097656 5.4062 1.3242 1.5156 1.2266 2.3984 3.0664 2.4141 5.0156z"/>
<text x="0.0" y="117.5" font-size="5.0" font-weight="bold" font-family="Arbeit Regular, Helvetica, Arial-Unicode, Arial, Sans-serif" fill="#000000">Created by komsiatun</text><text x="0.0" y="122.5" font-size="5.0" font-weight="bold" font-family="Arbeit Regular, Helvetica, Arial-Unicode, Arial, Sans-serif" fill="#000000">from Noun Project</text></svg>